# xmcd CD database file
#
# Track frame offsets:
#	150
#	22421
#	40987
#	50715
#	80216
#	114590
#	138663
#	159614
#	197976
#	205141
#
# Disc length: 3055 seconds
#
# Revision: 0
# Processed by: cddbd v1.5.2PL0 Copyright (c) Steve Scherf et al.
# Submitted via: CDex 1.51
#
DISCID=9d0bed0a
DTITLE=Joe Vitale - The Secret to Attracting Money [CD1]
DYEAR=2009
DGENRE=New Age
TTITLE0=How this program differs from other financial programs
TTITLE1=Playing the What If Up Game
TTITLE2=Being awake and aware
TTITLE3=The Law of Right Action and how it fits into the Law of Attraction
TTITLE4=Joe's seven key points about money 1-4
TTITLE5=Joe's seven key points about money 5-7
TTITLE6=Misconceptions about money
TTITLE7=Your Money Attractor Assessment
TTITLE8=Think like an entrepreneur
TTITLE9=The power of your unconscious/subconscious
EXTD=YEAR: 2009
EXTT0=
EXTT1=
EXTT2=
EXTT3=
EXTT4=
EXTT5=
EXTT6=
EXTT7=
EXTT8=
EXTT9=
PLAYORDER=
